<?xml version="1.0" encoding="UTF-8" standalone="yes"?><svg id="SvgjsSvg1371" xmlns="http://www.w3.org/2000/svg" xmlns:xlink="http://www.w3.org/1999/xlink" version="1.2" baseProfile="tiny" x="0" y="0" width="1275" height="325" viewBox="0 0 1275.65 325.652"><defs/><defs id="SvgjsDefs1372"><pattern id="pattern_mark_0" patternUnits="userSpaceOnUse" x="0" y="0" width="300" height="300" patternContentUnits="userSpaceOnUse"><text fill="rgba(229,229,229,0.8)" font-size="18" text-anchor="middle" transform="matrix(0.707107,-0.707107,0.707107,0.707107,-62.132,150)" x="150" y="100"/></pattern><pattern id="pattern_mark_1" patternUnits="userSpaceOnUse" x="0" y="0" width="300" height="300" patternContentUnits="userSpaceOnUse"><text fill="rgba(229,229,229,0.8)" font-size="18" text-anchor="middle" transform="matrix(0.707107,-0.707107,0.707107,0.707107,-62.132,150)" x="150" y="200"/></pattern><marker id="SvgjsMarker1390" stroke-dasharray="0,0" viewBox="0 0 13 9" refX="9.5" refY="4.5" markerWidth="13" markerHeight="9" markerUnits="userSpaceOnUse" orient="auto"><path id="SvgjsPath1391" fill="#323232" stroke="#323232" stroke-width="1" d="M 0 0 L 13 4.5 L 0 9 L 0 0 Z"/></marker><marker id="SvgjsMarker1400" stroke-dasharray="0,0" viewBox="0 0 13 9" refX="9.5" refY="4.5" markerWidth="13" markerHeight="9" markerUnits="userSpaceOnUse" orient="auto"><path id="SvgjsPath1401" fill="#323232" stroke="#323232" stroke-width="1" d="M 0 0 L 13 4.5 L 0 9 L 0 0 Z"/></marker><marker id="SvgjsMarker1410" stroke-dasharray="0,0" viewBox="0 0 13 9" refX="9.5" refY="4.5" markerWidth="13" markerHeight="9" markerUnits="userSpaceOnUse" orient="auto"><path id="SvgjsPath1411" fill="#323232" stroke="#323232" stroke-width="1" d="M 0 0 L 13 4.5 L 0 9 L 0 0 Z"/></marker><marker id="SvgjsMarker1464" stroke-dasharray="0,0" viewBox="0 0 13 9" refX="9.5" refY="4.5" markerWidth="13" markerHeight="9" markerUnits="userSpaceOnUse" orient="auto"><path id="SvgjsPath1465" fill="#323232" stroke="#323232" stroke-width="1" d="M 0 0 L 13 4.5 L 0 9 L 0 0 Z"/></marker><marker id="SvgjsMarker1488" stroke-dasharray="0,0" viewBox="0 0 13 9" refX="9.5" refY="4.5" markerWidth="13" markerHeight="9" markerUnits="userSpaceOnUse" orient="auto"><path id="SvgjsPath1489" fill="#323232" stroke="#323232" stroke-width="1" d="M 0 0 L 13 4.5 L 0 9 L 0 0 Z"/></marker><marker id="SvgjsMarker1500" stroke-dasharray="0,0" viewBox="0 0 13 9" refX="9.5" refY="4.5" markerWidth="13" markerHeight="9" markerUnits="userSpaceOnUse" orient="auto"><path id="SvgjsPath1501" fill="#323232" stroke="#323232" stroke-width="1" d="M 0 0 L 13 4.5 L 0 9 L 0 0 Z"/></marker><marker id="SvgjsMarker1512" stroke-dasharray="0,0" viewBox="0 0 13 9" refX="9.5" refY="4.5" markerWidth="13" markerHeight="9" markerUnits="userSpaceOnUse" orient="auto"><path id="SvgjsPath1513" fill="#323232" stroke="#323232" stroke-width="1" d="M 0 0 L 13 4.5 L 0 9 L 0 0 Z"/></marker><marker id="SvgjsMarker1532" stroke-dasharray="0,0" viewBox="0 0 13 9" refX="9.5" refY="4.5" markerWidth="13" markerHeight="9" markerUnits="userSpaceOnUse" orient="auto"><path id="SvgjsPath1533" fill="#323232" stroke="#323232" stroke-width="1" d="M 0 0 L 13 4.5 L 0 9 L 0 0 Z"/></marker><marker id="SvgjsMarker1544" stroke-dasharray="0,0" viewBox="0 0 13 9" refX="9.5" refY="4.5" markerWidth="13" markerHeight="9" markerUnits="userSpaceOnUse" orient="auto"><path id="SvgjsPath1545" fill="#323232" stroke="#323232" stroke-width="1" d="M 0 0 L 13 4.5 L 0 9 L 0 0 Z"/></marker><marker id="SvgjsMarker1556" stroke-dasharray="0,0" viewBox="0 0 13 9" refX="9.5" refY="4.5" markerWidth="13" markerHeight="9" markerUnits="userSpaceOnUse" orient="auto"><path id="SvgjsPath1557" fill="#323232" stroke="#323232" stroke-width="1" d="M 0 0 L 13 4.5 L 0 9 L 0 0 Z"/></marker><marker id="SvgjsMarker1568" stroke-dasharray="0,0" viewBox="0 0 13 9" refX="9.5" refY="4.5" markerWidth="13" markerHeight="9" markerUnits="userSpaceOnUse" orient="auto"><path id="SvgjsPath1569" fill="#323232" stroke="#323232" stroke-width="1" d="M 0 0 L 13 4.5 L 0 9 L 0 0 Z"/></marker><marker id="SvgjsMarker1572" stroke-dasharray="0,0" viewBox="0 0 13 9" refX="9.5" refY="4.5" markerWidth="13" markerHeight="9" markerUnits="userSpaceOnUse" orient="auto"><path id="SvgjsPath1573" fill="#323232" stroke="#323232" stroke-width="1" d="M 0 0 L 13 4.5 L 0 9 L 0 0 Z"/></marker><marker id="SvgjsMarker1576" stroke-dasharray="0,0" viewBox="0 0 13 9" refX="9.5" refY="4.5" markerWidth="13" markerHeight="9" markerUnits="userSpaceOnUse" orient="auto"><path id="SvgjsPath1577" fill="#323232" stroke="#323232" stroke-width="1" d="M 0 0 L 13 4.5 L 0 9 L 0 0 Z"/></marker><marker id="SvgjsMarker1580" stroke-dasharray="0,0" viewBox="0 0 13 9" refX="9.5" refY="4.5" markerWidth="13" markerHeight="9" markerUnits="userSpaceOnUse" orient="auto"><path id="SvgjsPath1581" fill="#323232" stroke="#323232" stroke-width="1" d="M 0 0 L 13 4.5 L 0 9 L 0 0 Z"/></marker><marker id="SvgjsMarker1598" stroke-dasharray="0,0" viewBox="0 0 13 9" refX="9.5" refY="4.5" markerWidth="13" markerHeight="9" markerUnits="userSpaceOnUse" orient="auto"><path id="SvgjsPath1599" fill="#323232" stroke="#323232" stroke-width="1" d="M 0 0 L 13 4.5 L 0 9 L 0 0 Z"/></marker><marker id="SvgjsMarker1616" stroke-dasharray="0,0" viewBox="0 0 13 9" refX="9.5" refY="4.5" markerWidth="13" markerHeight="9" markerUnits="userSpaceOnUse" orient="auto"><path id="SvgjsPath1617" fill="#323232" stroke="#323232" stroke-width="1" d="M 0 0 L 13 4.5 L 0 9 L 0 0 Z"/></marker><marker id="SvgjsMarker1640" stroke-dasharray="0,0" viewBox="0 0 13 9" refX="9.5" refY="4.5" markerWidth="13" markerHeight="9" markerUnits="userSpaceOnUse" orient="auto"><path id="SvgjsPath1641" fill="#323232" stroke="#323232" stroke-width="1" d="M 0 0 L 13 4.5 L 0 9 L 0 0 Z"/></marker><marker id="SvgjsMarker1656" stroke-dasharray="0,0" viewBox="0 0 13 9" refX="9.5" refY="4.5" markerWidth="13" markerHeight="9" markerUnits="userSpaceOnUse" orient="auto"><path id="SvgjsPath1657" fill="#323232" stroke="#323232" stroke-width="1" d="M 0 0 L 13 4.5 L 0 9 L 0 0 Z"/></marker><marker id="SvgjsMarker1660" stroke-dasharray="0,0" viewBox="0 0 13 9" refX="9.5" refY="4.5" markerWidth="13" markerHeight="9" markerUnits="userSpaceOnUse" orient="auto"><path id="SvgjsPath1661" fill="#323232" stroke="#323232" stroke-width="1" d="M 0 0 L 13 4.5 L 0 9 L 0 0 Z"/></marker><marker id="SvgjsMarker1672" stroke-dasharray="0,0" viewBox="0 0 13 9" refX="9.5" refY="4.5" markerWidth="13" markerHeight="9" markerUnits="userSpaceOnUse" orient="auto"><path id="SvgjsPath1673" fill="#323232" stroke="#323232" stroke-width="1" d="M 0 0 L 13 4.5 L 0 9 L 0 0 Z"/></marker><marker id="SvgjsMarker1682" stroke-dasharray="0,0" viewBox="0 0 13 9" refX="9.5" refY="4.5" markerWidth="13" markerHeight="9" markerUnits="userSpaceOnUse" orient="auto"><path id="SvgjsPath1683" fill="#323232" stroke="#323232" stroke-width="1" d="M 0 0 L 13 4.5 L 0 9 L 0 0 Z"/></marker><marker id="SvgjsMarker1708" stroke-dasharray="0,0" viewBox="0 0 13 9" refX="9.5" refY="4.5" markerWidth="13" markerHeight="9" markerUnits="userSpaceOnUse" orient="auto"><path id="SvgjsPath1709" fill="#323232" stroke="#323232" stroke-width="1" d="M 0 0 L 13 4.5 L 0 9 L 0 0 Z"/></marker><marker id="SvgjsMarker1712" stroke-dasharray="0,0" viewBox="0 0 13 9" refX="9.5" refY="4.5" markerWidth="13" markerHeight="9" markerUnits="userSpaceOnUse" orient="auto"><path id="SvgjsPath1713" fill="#323232" stroke="#323232" stroke-width="1" d="M 0 0 L 13 4.5 L 0 9 L 0 0 Z"/></marker><marker id="SvgjsMarker1736" stroke-dasharray="0,0" viewBox="0 0 13 9" refX="9.5" refY="4.5" markerWidth="13" markerHeight="9" markerUnits="userSpaceOnUse" orient="auto"><path id="SvgjsPath1737" fill="#323232" stroke="#323232" stroke-width="1" d="M 0 0 L 13 4.5 L 0 9 L 0 0 Z"/></marker><pattern id="wpspattern_mark_0" patternUnits="userSpaceOnUse" x="0" y="0" width="300" height="300" patternContentUnits="userSpaceOnUse"><text font-size="18" text-anchor="middle" transform="matrix(0.707107,-0.707107,0.707107,0.707107,-62.132,150)" x="150" y="100"/></pattern></defs><rect id="svgbackgroundid" fill="rgba(0,0,0,0)" x="0" y="0" width="1275.65" height="325.652"/><rect id="SvgjsRect1374" fill="url(#pattern_mark_0)" x="0" y="0" width="1275.65" height="325.652"/><rect id="SvgjsRect1375" fill="url(#pattern_mark_1)" x="0" y="0" width="1275.65" height="325.652"/><g id="SvgjsG1376" transform="matrix(1,0,0,1,574.686,78.4372)"><path id="SvgjsPath1377" fill="none" stroke="none" d="M 0 0 L 152.19 0 L 152.19 24.214 L 0 24.214 L 0 0 Z"/><g id="SvgjsG1378"><text id="SvgjsText1379" fill="#323232" font-family="&quot;Microsoft YaHei&quot;, 微软雅黑, Arial" font-size="13" font-weight="400" text-anchor="middle" x="0" y="1.482"><tspan id="SvgjsTspan1380" x="76.5 " dy="16.25 "><tspan id="SvgjsTspan1381">图像与对应描述文本输入</tspan></tspan></text></g></g><g id="SvgjsG1382" transform="matrix(1,0,0,1,25,160.652)"><path id="SvgjsPath1383" fill="#ffffff" fill-opacity="1" stroke="#212930" stroke-width="1.5" d="M 16.667 0 L 83.333 0 C 105.556 0 105.556 50 83.333 50 L 16.667 50 C -5.556 50 -5.556 0 16.667 0 Z"/><g id="SvgjsG1384"><text id="SvgjsText1385" fill="#323232" font-family="&quot;Microsoft YaHei&quot;, 微软雅黑, Arial" font-size="13" font-weight="400" text-anchor="middle" x="0" y="14.375"><tspan id="SvgjsTspan1386" x="50 " dy="16.25 "><tspan id="SvgjsTspan1387">长视频</tspan></tspan></text></g></g><g id="SvgjsG1388"><path id="SvgjsPath1389" fill="none" stroke="#323232" stroke-width="1.5" d="M 125.75 185.652 L 149.836 185.652 L 171.972 185.652" marker-end="url(#SvgjsMarker1390)"/></g><g id="SvgjsG1392" transform="matrix(1,0,0,1,174.672,160.652)"><path id="SvgjsPath1393" fill="#ffffff" fill-opacity="1" stroke="#212930" stroke-width="1.5" d="M 0 0 L 90 0 L 90 50 L 0 50 L 0 0 Z"/><g id="SvgjsG1394"><text id="SvgjsText1395" fill="#323232" font-family="&quot;Microsoft YaHei&quot;, 微软雅黑, Arial" font-size="13" font-weight="400" text-anchor="middle" x="0" y="14.375"><tspan id="SvgjsTspan1396" x="45 " dy="16.25 "><tspan id="SvgjsTspan1397">音频</tspan></tspan></text></g></g><g id="SvgjsG1398"><path id="SvgjsPath1399" fill="none" stroke="#323232" stroke-width="1.5" d="M 265.422 185.652 L 289.507 185.652 L 311.643 185.652" marker-end="url(#SvgjsMarker1400)"/></g><g id="SvgjsG1402" transform="matrix(1,0,0,1,314.343,160.652)"><path id="SvgjsPath1403" fill="#ffffff" fill-opacity="1" stroke="#212930" stroke-width="1.5" d="M 0 0 L 90 0 L 90 50 L 0 50 L 0 0 Z"/><g id="SvgjsG1404"><text id="SvgjsText1405" fill="#323232" font-family="&quot;Microsoft YaHei&quot;, 微软雅黑, Arial" font-size="13" font-weight="400" text-anchor="middle" x="0" y="14.375"><tspan id="SvgjsTspan1406" x="45 " dy="16.25 "><tspan id="SvgjsTspan1407">人声音频</tspan></tspan></text></g></g><g id="SvgjsG1408"><path id="SvgjsPath1409" fill="none" stroke="#323232" stroke-width="1.5" d="M 405.093 185.652 L 429.179 185.652 L 451.315 185.652" marker-end="url(#SvgjsMarker1410)"/></g><g id="SvgjsG1412" transform="matrix(1,0,0,1,454.015,160.652)"><path id="SvgjsPath1413" fill="#ffffff" fill-opacity="1" stroke="#212930" stroke-width="1.5" d="M 0 0 L 90 0 L 90 50 L 0 50 L 0 0 Z"/><g id="SvgjsG1414"><text id="SvgjsText1415" fill="#323232" font-family="&quot;Microsoft YaHei&quot;, 微软雅黑, Arial" font-size="13" font-weight="400" text-anchor="middle" x="0" y="14.375"><tspan id="SvgjsTspan1416" x="45 " dy="16.25 "><tspan id="SvgjsTspan1417">音频字幕</tspan></tspan></text></g></g><g id="SvgjsG1418" transform="matrix(1,0,0,1,873.029,78.4372)"><path id="SvgjsPath1419" fill="#ffffff" fill-opacity="1" stroke="#212930" stroke-width="1.5" d="M 0 0 L 90 0 L 90 50 L 0 50 L 0 0 Z"/><g id="SvgjsG1420"><text id="SvgjsText1421" fill="#323232" font-family="&quot;Microsoft YaHei&quot;, 微软雅黑, Arial" font-size="13" font-weight="400" text-anchor="middle" x="0" y="14.375"><tspan id="SvgjsTspan1422" x="45 " dy="16.25 "><tspan id="SvgjsTspan1423">剪辑方式</tspan></tspan></text></g></g><g id="SvgjsG1424" transform="matrix(1,0,0,1,873.029,160.652)"><path id="SvgjsPath1425" fill="#ffffff" fill-opacity="1" stroke="#212930" stroke-width="1.5" d="M 0 0 L 90 0 L 90 50 L 0 50 L 0 0 Z"/><g id="SvgjsG1426"><text id="SvgjsText1427" fill="#323232" font-family="&quot;Microsoft YaHei&quot;, 微软雅黑, Arial" font-size="13" font-weight="400" text-anchor="middle" x="0" y="14.375"><tspan id="SvgjsTspan1428" x="45 " dy="16.25 "><tspan id="SvgjsTspan1429">解说文字</tspan></tspan></text></g></g><g id="SvgjsG1430" transform="matrix(1,0,0,1,95.2271,165.652)"><path id="SvgjsPath1431" fill="none" stroke="none" d="M 0 0 L 100 0 L 100 40 L 0 40 L 0 0 Z"/><g id="SvgjsG1432"><text id="SvgjsText1433" fill="#323232" font-family="&quot;Microsoft YaHei&quot;, 微软雅黑, Arial" font-size="13" font-weight="400" text-anchor="middle" x="0" y="0.875"><tspan id="SvgjsTspan1434" x="50 " dy="16.25 "><tspan id="SvgjsTspan1435">提取</tspan></tspan><tspan id="SvgjsTspan1436" x="50 " dy="16.25 "><tspan id="SvgjsTspan1437">音频</tspan></tspan></text></g></g><g id="SvgjsG1438" transform="matrix(1,0,0,1,233.547,165.652)"><path id="SvgjsPath1439" fill="none" stroke="none" d="M 0 0 L 100 0 L 100 40 L 0 40 L 0 0 Z"/><g id="SvgjsG1440"><text id="SvgjsText1441" fill="#323232" font-family="&quot;Microsoft YaHei&quot;, 微软雅黑, Arial" font-size="13" font-weight="400" text-anchor="middle" x="0" y="0.875"><tspan id="SvgjsTspan1442" x="50 " dy="16.25 "><tspan id="SvgjsTspan1443">分离</tspan></tspan><tspan id="SvgjsTspan1444" x="50 " dy="16.25 "><tspan id="SvgjsTspan1445">人声</tspan></tspan></text></g></g><g id="SvgjsG1446" transform="matrix(1,0,0,1,373.731,165.652)"><path id="SvgjsPath1447" fill="none" stroke="none" d="M 0 0 L 100 0 L 100 40 L 0 40 L 0 0 Z"/><g id="SvgjsG1448"><text id="SvgjsText1449" fill="#323232" font-family="&quot;Microsoft YaHei&quot;, 微软雅黑, Arial" font-size="13" font-weight="400" text-anchor="middle" x="0" y="0.875"><tspan id="SvgjsTspan1450" x="50 " dy="16.25 "><tspan id="SvgjsTspan1451">语音</tspan></tspan><tspan id="SvgjsTspan1452" x="50 " dy="16.25 "><tspan id="SvgjsTspan1453">识别</tspan></tspan></text></g></g><g id="SvgjsG1454" transform="matrix(1,0,0,1,593.686,160.652)"><path id="SvgjsPath1455" fill="#ffffff" fill-opacity="1" stroke="#212930" stroke-width="1.5" d="M 0 0 L 90 0 L 90 50 L 0 50 L 0 0 Z"/><g id="SvgjsG1456"><text id="SvgjsText1457" fill="#323232" font-family="&quot;Microsoft YaHei&quot;, 微软雅黑, Arial" font-size="13" font-weight="400" text-anchor="middle" x="0" y="5.875"><tspan id="SvgjsTspan1458" x="45 " dy="16.25 "><tspan id="SvgjsTspan1459">短视频主题</tspan></tspan><tspan id="SvgjsTspan1460" x="45 " dy="16.25 "><tspan id="SvgjsTspan1461">生成大模型</tspan></tspan></text></g></g><g id="SvgjsG1462"><path id="SvgjsPath1463" fill="none" stroke="#323232" stroke-width="1.5" d="M 544.25 185.652 L 568.593 185.652 L 590.986 185.652" marker-end="url(#SvgjsMarker1464)"/></g><g id="SvgjsG1466" transform="matrix(1,0,0,1,513.916,165.652)"><path id="SvgjsPath1467" fill="none" stroke="none" d="M 0 0 L 100 0 L 100 40 L 0 40 L 0 0 Z"/><g id="SvgjsG1468"><text id="SvgjsText1469" fill="#323232" font-family="&quot;Microsoft YaHei&quot;, 微软雅黑, Arial" font-size="13" font-weight="400" text-anchor="middle" x="0" y="0.875"><tspan id="SvgjsTspan1470" x="50 " dy="16.25 "><tspan id="SvgjsTspan1471">文本</tspan></tspan><tspan id="SvgjsTspan1472" x="50 " dy="16.25 "><tspan id="SvgjsTspan1473">输入</tspan></tspan></text></g></g><g id="SvgjsG1474" transform="matrix(1,0,0,1,314.343,78.4372)"><path id="SvgjsPath1475" fill="#ffffff" fill-opacity="1" stroke="#212930" stroke-width="1.5" d="M 0 0 L 90 0 L 90 50 L 0 50 L 0 0 Z"/><g id="SvgjsG1476"><text id="SvgjsText1477" fill="#323232" font-family="&quot;Microsoft YaHei&quot;, 微软雅黑, Arial" font-size="13" font-weight="400" text-anchor="middle" x="0" y="14.375"><tspan id="SvgjsTspan1478" x="45 " dy="16.25 "><tspan id="SvgjsTspan1479">关键帧</tspan></tspan></text></g></g><g id="SvgjsG1480" transform="matrix(1,0,0,1,174.672,78.4372)"><path id="SvgjsPath1481" fill="#ffffff" fill-opacity="1" stroke="#212930" stroke-width="1.5" d="M 0 0 L 90 0 L 90 50 L 0 50 L 0 0 Z"/><g id="SvgjsG1482"><text id="SvgjsText1483" fill="#323232" font-family="&quot;Microsoft YaHei&quot;, 微软雅黑, Arial" font-size="13" font-weight="400" text-anchor="middle" x="0" y="14.375"><tspan id="SvgjsTspan1484" x="45 " dy="16.25 "><tspan id="SvgjsTspan1485">视频</tspan></tspan></text></g></g><g id="SvgjsG1486"><path id="SvgjsPath1487" fill="none" stroke="#323232" stroke-width="1.5" d="M 75 159.902 L 75 103.437 L 171.972 103.437" marker-end="url(#SvgjsMarker1488)"/></g><g id="SvgjsG1490" transform="matrix(1,0,0,1,95.2271,83.4372)"><path id="SvgjsPath1491" fill="none" stroke="none" d="M 0 0 L 100 0 L 100 40 L 0 40 L 0 0 Z"/><g id="SvgjsG1492"><text id="SvgjsText1493" fill="#323232" font-family="&quot;Microsoft YaHei&quot;, 微软雅黑, Arial" font-size="13" font-weight="400" text-anchor="middle" x="0" y="0.875"><tspan id="SvgjsTspan1494" x="50 " dy="16.25 "><tspan id="SvgjsTspan1495">提取</tspan></tspan><tspan id="SvgjsTspan1496" x="50 " dy="16.25 "><tspan id="SvgjsTspan1497">视频</tspan></tspan></text></g></g><g id="SvgjsG1498"><path id="SvgjsPath1499" fill="none" stroke="#323232" stroke-width="1.5" d="M 265.422 103.437 L 289.507 103.437 L 311.643 103.437" marker-end="url(#SvgjsMarker1500)"/></g><g id="SvgjsG1502" transform="matrix(1,0,0,1,233.547,83.4372)"><path id="SvgjsPath1503" fill="none" stroke="none" d="M 0 0 L 100 0 L 100 40 L 0 40 L 0 0 Z"/><g id="SvgjsG1504"><text id="SvgjsText1505" fill="#323232" font-family="&quot;Microsoft YaHei&quot;, 微软雅黑, Arial" font-size="13" font-weight="400" text-anchor="middle" x="0" y="0.875"><tspan id="SvgjsTspan1506" x="50 " dy="16.25 "><tspan id="SvgjsTspan1507">关键帧</tspan></tspan><tspan id="SvgjsTspan1508" x="50 " dy="16.25 "><tspan id="SvgjsTspan1509">提取</tspan></tspan></text></g></g><g id="SvgjsG1510"><path id="SvgjsPath1511" fill="none" stroke="#323232" stroke-width="1.5" d="M 405.093 103.437 L 429.179 103.437 L 451.315 103.437" marker-end="url(#SvgjsMarker1512)"/></g><g id="SvgjsG1514" transform="matrix(1,0,0,1,454.015,78.4372)"><path id="SvgjsPath1515" fill="#ffffff" fill-opacity="1" stroke="#212930" stroke-width="1.5" d="M 0 0 L 90 0 L 90 50 L 0 50 L 0 0 Z"/><g id="SvgjsG1516"><text id="SvgjsText1517" fill="#323232" font-family="&quot;Microsoft YaHei&quot;, 微软雅黑, Arial" font-size="13" font-weight="400" text-anchor="middle" x="0" y="5.875"><tspan id="SvgjsTspan1518" x="45 " dy="16.25 "><tspan id="SvgjsTspan1519">画面描述</tspan></tspan><tspan id="SvgjsTspan1520" x="45 " dy="16.25 "><tspan id="SvgjsTspan1521">大模型</tspan></tspan></text></g></g><g id="SvgjsG1522" transform="matrix(1,0,0,1,373.731,83.4372)"><path id="SvgjsPath1523" fill="none" stroke="none" d="M 0 0 L 100 0 L 100 40 L 0 40 L 0 0 Z"/><g id="SvgjsG1524"><text id="SvgjsText1525" fill="#323232" font-family="&quot;Microsoft YaHei&quot;, 微软雅黑, Arial" font-size="13" font-weight="400" text-anchor="middle" x="0" y="0.875"><tspan id="SvgjsTspan1526" x="50 " dy="16.25 "><tspan id="SvgjsTspan1527">图像</tspan></tspan><tspan id="SvgjsTspan1528" x="50 " dy="16.25 "><tspan id="SvgjsTspan1529">输入</tspan></tspan></text></g></g><g id="SvgjsG1530"><path id="SvgjsPath1531" fill="none" stroke="#323232" stroke-width="1.5" d="M 544.765 103.437 L 638.686 103.437 L 638.686 157.952" marker-end="url(#SvgjsMarker1532)"/></g><g id="SvgjsG1534" transform="matrix(1,0,0,1,588.686,250.652)"><path id="SvgjsPath1535" fill="#ffffff" fill-opacity="1" stroke="#212930" stroke-width="1.5" d="M 16.667 0 L 83.333 0 C 105.556 0 105.556 50 83.333 50 L 16.667 50 C -5.556 50 -5.556 0 16.667 0 Z"/><g id="SvgjsG1536"><text id="SvgjsText1537" fill="#323232" font-family="&quot;Microsoft YaHei&quot;, 微软雅黑, Arial" font-size="13" font-weight="400" text-anchor="middle" x="0" y="5.875"><tspan id="SvgjsTspan1538" x="50 " dy="16.25 "><tspan id="SvgjsTspan1539">不同剪辑方式</tspan></tspan><tspan id="SvgjsTspan1540" x="50 " dy="16.25 "><tspan id="SvgjsTspan1541">Prompt</tspan></tspan></text></g></g><g id="SvgjsG1542"><path id="SvgjsPath1543" fill="none" stroke="#323232" stroke-width="1.5" d="M 638.686 249.902 L 638.686 230.652 L 638.686 213.352" marker-end="url(#SvgjsMarker1544)"/></g><g id="SvgjsG1546" transform="matrix(1,0,0,1,733.358,160.652)"><path id="SvgjsPath1547" fill="#ffffff" fill-opacity="1" stroke="#212930" stroke-width="1.5" d="M 0 0 L 90 0 L 90 50 L 0 50 L 0 0 Z"/><g id="SvgjsG1548"><text id="SvgjsText1549" fill="#323232" font-family="&quot;Microsoft YaHei&quot;, 微软雅黑, Arial" font-size="13" font-weight="400" text-anchor="middle" x="0" y="5.875"><tspan id="SvgjsTspan1550" x="45 " dy="16.25 "><tspan id="SvgjsTspan1551">剪辑脚本</tspan></tspan><tspan id="SvgjsTspan1552" x="45 " dy="16.25 "><tspan id="SvgjsTspan1553">生成大模型</tspan></tspan></text></g></g><g id="SvgjsG1554"><path id="SvgjsPath1555" fill="none" stroke="#323232" stroke-width="1.5" d="M 684.436 185.652 L 708.522 185.652 L 730.658 185.652" marker-end="url(#SvgjsMarker1556)"/></g><g id="SvgjsG1558" transform="matrix(1,0,0,1,649.849,165.652)"><path id="SvgjsPath1559" fill="none" stroke="none" d="M 0 0 L 100 0 L 100 40 L 0 40 L 0 0 Z"/><g id="SvgjsG1560"><text id="SvgjsText1561" fill="#323232" font-family="&quot;Microsoft YaHei&quot;, 微软雅黑, Arial" font-size="13" font-weight="400" text-anchor="middle" x="0" y="0.875"><tspan id="SvgjsTspan1562" x="50 " dy="16.25 "><tspan id="SvgjsTspan1563">剪辑</tspan></tspan><tspan id="SvgjsTspan1564" x="50 " dy="16.25 "><tspan id="SvgjsTspan1565">主题</tspan></tspan></text></g></g><g id="SvgjsG1566"><path id="SvgjsPath1567" fill="none" stroke="#323232" stroke-width="1.5" d="M 499.015 211.402 L 499.015 238.299 L 778.358 238.299 L 778.358 213.352" marker-end="url(#SvgjsMarker1568)"/></g><g id="SvgjsG1570"><path id="SvgjsPath1571" fill="none" stroke="#323232" stroke-width="1.5" d="M 637.838 103.652 L 778.358 103.652 L 778.358 157.952" marker-end="url(#SvgjsMarker1572)"/></g><g id="SvgjsG1574"><path id="SvgjsPath1575" fill="none" stroke="#323232" stroke-width="1.5" d="M 824.108 185.652 L 848.194 185.652 L 870.329 185.652" marker-end="url(#SvgjsMarker1576)"/></g><g id="SvgjsG1578"><path id="SvgjsPath1579" fill="none" stroke="#323232" stroke-width="1.5" d="M 824.108 185.652 L 856.505 185.652 L 856.505 103.437 L 870.329 103.437" marker-end="url(#SvgjsMarker1580)"/></g><g id="SvgjsG1582" transform="matrix(1,0,0,1,790.555,153.652)"><path id="SvgjsPath1583" fill="none" stroke="none" d="M 0 0 L 100 0 L 100 40 L 0 40 L 0 0 Z"/><g id="SvgjsG1584"><text id="SvgjsText1585" fill="#323232" font-family="&quot;Microsoft YaHei&quot;, 微软雅黑, Arial" font-size="13" font-weight="400" text-anchor="middle" x="0" y="9.375"><tspan id="SvgjsTspan1586" x="50 " dy="16.25 "><tspan id="SvgjsTspan1587">生成</tspan></tspan></text></g></g><g id="SvgjsG1588" transform="matrix(1,0,0,1,1011.84,160.652)"><path id="SvgjsPath1589" fill="#ffffff" fill-opacity="1" stroke="#212930" stroke-width="1.5" d="M 0 0 L 90 0 L 90 50 L 0 50 L 0 0 Z"/><g id="SvgjsG1590"><text id="SvgjsText1591" fill="#323232" font-family="&quot;Microsoft YaHei&quot;, 微软雅黑, Arial" font-size="13" font-weight="400" text-anchor="middle" x="0" y="5.875"><tspan id="SvgjsTspan1592" x="45 " dy="16.25 "><tspan id="SvgjsTspan1593">粤语配音</tspan></tspan><tspan id="SvgjsTspan1594" x="45 " dy="16.25 "><tspan id="SvgjsTspan1595">生成大模型</tspan></tspan></text></g></g><g id="SvgjsG1596"><path id="SvgjsPath1597" fill="none" stroke="#323232" stroke-width="1.5" d="M 963.779 185.652 L 987.434 185.652 L 1009.14 185.652" marker-end="url(#SvgjsMarker1598)"/></g><g id="SvgjsG1600" transform="matrix(1,0,0,1,931.26,165.652)"><path id="SvgjsPath1601" fill="none" stroke="none" d="M 0 0 L 100 0 L 100 40 L 0 40 L 0 0 Z"/><g id="SvgjsG1602"><text id="SvgjsText1603" fill="#323232" font-family="&quot;Microsoft YaHei&quot;, 微软雅黑, Arial" font-size="13" font-weight="400" text-anchor="middle" x="0" y="0.875"><tspan id="SvgjsTspan1604" x="50 " dy="16.25 "><tspan id="SvgjsTspan1605">文本</tspan></tspan><tspan id="SvgjsTspan1606" x="50 " dy="16.25 "><tspan id="SvgjsTspan1607">输入</tspan></tspan></text></g></g><g id="SvgjsG1608" transform="matrix(1,0,0,1,1011.84,78.4372)"><path id="SvgjsPath1609" fill="#ffffff" fill-opacity="1" stroke="#212930" stroke-width="1.5" d="M 0 0 L 90 0 L 90 50 L 0 50 L 0 0 Z"/><g id="SvgjsG1610"><text id="SvgjsText1611" fill="#323232" font-family="&quot;Microsoft YaHei&quot;, 微软雅黑, Arial" font-size="13" font-weight="400" text-anchor="middle" x="0" y="14.375"><tspan id="SvgjsTspan1612" x="45 " dy="16.25 "><tspan id="SvgjsTspan1613">剪辑模块</tspan></tspan></text></g></g><g id="SvgjsG1614"><path id="SvgjsPath1615" fill="none" stroke="#323232" stroke-width="1.5" d="M 1056.84 159.902 L 1056.84 144.544 L 1056.84 131.137" marker-end="url(#SvgjsMarker1616)"/></g><g id="SvgjsG1618" transform="matrix(1,0,0,1,1042.96,125.652)"><path id="SvgjsPath1619" fill="none" stroke="none" d="M 0 0 L 100 0 L 100 40 L 0 40 L 0 0 Z"/><g id="SvgjsG1620"><text id="SvgjsText1621" fill="#323232" font-family="&quot;Microsoft YaHei&quot;, 微软雅黑, Arial" font-size="13" font-weight="400" text-anchor="middle" x="0" y="9.375"><tspan id="SvgjsTspan1622" x="50 " dy="16.25 "><tspan id="SvgjsTspan1623">语音片段</tspan></tspan></text></g></g><g id="SvgjsG1624" transform="matrix(1,0,0,1,752.235,25)"><path id="SvgjsPath1625" fill="none" stroke="none" d="M 0 0 L 100 0 L 100 40 L 0 40 L 0 0 Z"/><g id="SvgjsG1626"><text id="SvgjsText1627" fill="#323232" font-family="&quot;Microsoft YaHei&quot;, 微软雅黑, Arial" font-size="13" font-weight="400" text-anchor="middle" x="0" y="9.375"><tspan id="SvgjsTspan1628" x="50 " dy="16.25 "><tspan id="SvgjsTspan1629">原视频输入</tspan></tspan></text></g></g><g id="SvgjsG1630" transform="matrix(1,0,0,1,931.26,83.4372)"><path id="SvgjsPath1631" fill="none" stroke="none" d="M 0 0 L 100 0 L 100 40 L 0 40 L 0 0 Z"/><g id="SvgjsG1632"><text id="SvgjsText1633" fill="#323232" font-family="&quot;Microsoft YaHei&quot;, 微软雅黑, Arial" font-size="13" font-weight="400" text-anchor="middle" x="0" y="0.875"><tspan id="SvgjsTspan1634" x="50 " dy="16.25 "><tspan id="SvgjsTspan1635">文本</tspan></tspan><tspan id="SvgjsTspan1636" x="50 " dy="16.25 "><tspan id="SvgjsTspan1637">输入</tspan></tspan></text></g></g><g id="SvgjsG1638"><path id="SvgjsPath1639" fill="none" stroke="#323232" stroke-width="1.5" d="M 1102.29 103.437 L 1126.09 103.437 L 1147.95 103.437" marker-end="url(#SvgjsMarker1640)"/></g><g id="SvgjsG1642" transform="matrix(1,0,0,1,1150.65,78.4372)"><path id="SvgjsPath1643" fill="#ffffff" fill-opacity="1" stroke="#212930" stroke-width="1.5" d="M 16.667 0 L 83.333 0 C 105.556 0 105.556 50 83.333 50 L 16.667 50 C -5.556 50 -5.556 0 16.667 0 Z"/><g id="SvgjsG1644"><text id="SvgjsText1645" fill="#323232" font-family="&quot;Microsoft YaHei&quot;, 微软雅黑, Arial" font-size="13" font-weight="400" text-anchor="middle" x="0" y="14.375"><tspan id="SvgjsTspan1646" x="50 " dy="16.25 "><tspan id="SvgjsTspan1647">多个短视频</tspan></tspan></text></g></g><g id="SvgjsG1648" transform="matrix(1,0,0,1,1070.92,70.5444)"><path id="SvgjsPath1649" fill="none" stroke="none" d="M 0 0 L 100 0 L 100 40 L 0 40 L 0 0 Z"/><g id="SvgjsG1650"><text id="SvgjsText1651" fill="#323232" font-family="&quot;Microsoft YaHei&quot;, 微软雅黑, Arial" font-size="13" font-weight="400" text-anchor="middle" x="0" y="9.375"><tspan id="SvgjsTspan1652" x="50 " dy="16.25 "><tspan id="SvgjsTspan1653">输出</tspan></tspan></text></g></g><g id="SvgjsG1654"><path id="SvgjsPath1655" fill="none" stroke="#323232" stroke-width="1.5" d="M 963.779 103.437 L 987.434 103.437 L 1009.14 103.437" marker-end="url(#SvgjsMarker1656)"/></g><g id="SvgjsG1658"><path id="SvgjsPath1659" fill="none" stroke="#323232" stroke-width="1.5" d="M 75 159.902 L 75 59.7706 L 1056.84 59.7706 L 1056.84 75.7372" marker-end="url(#SvgjsMarker1660)"/></g><g id="SvgjsG1662" transform="matrix(1,0,0,1,873.029,237.866)"><path id="SvgjsPath1663" fill="#ffffff" fill-opacity="1" stroke="#212930" stroke-width="1.5" d="M 0 0 L 90 0 L 90 50 L 0 50 L 0 0 Z"/><g id="SvgjsG1664"><text id="SvgjsText1665" fill="#323232" font-family="&quot;Microsoft YaHei&quot;, 微软雅黑, Arial" font-size="13" font-weight="400" text-anchor="middle" x="0" y="5.875"><tspan id="SvgjsTspan1666" x="45 " dy="16.25 "><tspan id="SvgjsTspan1667">短视频封面</tspan></tspan><tspan id="SvgjsTspan1668" x="45 " dy="16.25 "><tspan id="SvgjsTspan1669">生成大模型</tspan></tspan></text></g></g><g id="SvgjsG1670"><path id="SvgjsPath1671" fill="none" stroke="#323232" stroke-width="1.5" d="M 918.029 211.402 L 918.029 224.259 L 918.029 235.166" marker-end="url(#SvgjsMarker1672)"/></g><g id="SvgjsG1674" transform="matrix(1,0,0,1,899.187,205.652)"><path id="SvgjsPath1675" fill="none" stroke="none" d="M 0 0 L 100 0 L 100 40 L 0 40 L 0 0 Z"/><g id="SvgjsG1676"><text id="SvgjsText1677" fill="#323232" font-family="&quot;Microsoft YaHei&quot;, 微软雅黑, Arial" font-size="13" font-weight="400" text-anchor="middle" x="0" y="9.375"><tspan id="SvgjsTspan1678" x="50 " dy="16.25 "><tspan id="SvgjsTspan1679">文本输入</tspan></tspan></text></g></g><g id="SvgjsG1680"><path id="SvgjsPath1681" fill="none" stroke="#323232" stroke-width="1.5" d="M 963.779 262.866 L 1056.84 262.866 L 1147.95 262.866" marker-end="url(#SvgjsMarker1682)"/></g><g id="SvgjsG1684" transform="matrix(1,0,0,1,1150.65,237.866)"><path id="SvgjsPath1685" fill="#ffffff" fill-opacity="1" stroke="#212930" stroke-width="1.5" d="M 16.667 0 L 83.333 0 C 105.556 0 105.556 50 83.333 50 L 16.667 50 C -5.556 50 -5.556 0 16.667 0 Z"/><g id="SvgjsG1686"><text id="SvgjsText1687" fill="#323232" font-family="&quot;Microsoft YaHei&quot;, 微软雅黑, Arial" font-size="13" font-weight="400" text-anchor="middle" x="0" y="5.875"><tspan id="SvgjsTspan1688" x="50 " dy="16.25 "><tspan id="SvgjsTspan1689">多个短视频</tspan></tspan><tspan id="SvgjsTspan1690" x="50 " dy="16.25 "><tspan id="SvgjsTspan1691">封面</tspan></tspan></text></g></g><g id="SvgjsG1692" transform="matrix(1,0,0,1,1006.84,231.755)"><path id="SvgjsPath1693" fill="none" stroke="none" d="M 0 0 L 100 0 L 100 40 L 0 40 L 0 0 Z"/><g id="SvgjsG1694"><text id="SvgjsText1695" fill="#323232" font-family="&quot;Microsoft YaHei&quot;, 微软雅黑, Arial" font-size="13" font-weight="400" text-anchor="middle" x="0" y="9.375"><tspan id="SvgjsTspan1696" x="50 " dy="16.25 "><tspan id="SvgjsTspan1697">输出</tspan></tspan></text></g></g><g id="SvgjsG1698" transform="matrix(1,0,0,1,647.727,217.915)"><path id="SvgjsPath1699" fill="none" stroke="none" d="M 0 0 L 100 0 L 100 40 L 0 40 L 0 0 Z"/><g id="SvgjsG1700"><text id="SvgjsText1701" fill="#323232" font-family="&quot;Microsoft YaHei&quot;, 微软雅黑, Arial" font-size="13" font-weight="400" text-anchor="middle" x="0" y="0.875"><tspan id="SvgjsTspan1702" x="50 " dy="16.25 "><tspan id="SvgjsTspan1703">文本</tspan></tspan><tspan id="SvgjsTspan1704" x="50 " dy="16.25 "><tspan id="SvgjsTspan1705">输入</tspan></tspan></text></g></g><g id="SvgjsG1706"><path id="SvgjsPath1707" fill="none" stroke="#323232" stroke-width="1.5" d="M 689.436 275.652 L 801.338 275.652 L 801.338 213.352" marker-end="url(#SvgjsMarker1708)"/></g><g id="SvgjsG1710"><path id="SvgjsPath1711" fill="none" stroke="#323232" stroke-width="1.5" d="M 499.015 159.902 L 499.015 144.544 L 499.015 131.137" marker-end="url(#SvgjsMarker1712)"/></g><g id="SvgjsG1714" transform="matrix(1,0,0,1,480.172,125.652)"><path id="SvgjsPath1715" fill="none" stroke="none" d="M 0 0 L 100 0 L 100 40 L 0 40 L 0 0 Z"/><g id="SvgjsG1716"><text id="SvgjsText1717" fill="#323232" font-family="&quot;Microsoft YaHei&quot;, 微软雅黑, Arial" font-size="13" font-weight="400" text-anchor="middle" x="0" y="9.375"><tspan id="SvgjsTspan1718" x="50 " dy="16.25 "><tspan id="SvgjsTspan1719">文本输入</tspan></tspan></text></g></g><g id="SvgjsG1720" transform="matrix(1,0,0,1,691.529,255.652)"><path id="SvgjsPath1721" fill="none" stroke="none" d="M 0 0 L 100 0 L 100 40 L 0 40 L 0 0 Z"/><g id="SvgjsG1722"><text id="SvgjsText1723" fill="#323232" font-family="&quot;Microsoft YaHei&quot;, 微软雅黑, Arial" font-size="13" font-weight="400" text-anchor="middle" x="0" y="0.875"><tspan id="SvgjsTspan1724" x="50 " dy="16.25 "><tspan id="SvgjsTspan1725">文本</tspan></tspan><tspan id="SvgjsTspan1726" x="50 " dy="16.25 "><tspan id="SvgjsTspan1727">输入</tspan></tspan></text></g></g><g id="SvgjsG1728" transform="matrix(1,0,0,1,557.529,205.652)"><path id="SvgjsPath1729" fill="none" stroke="none" d="M 0 0 L 100 0 L 100 40 L 0 40 L 0 0 Z"/><g id="SvgjsG1730"><text id="SvgjsText1731" fill="#323232" font-family="&quot;Microsoft YaHei&quot;, 微软雅黑, Arial" font-size="13" font-weight="400" text-anchor="middle" x="0" y="9.375"><tspan id="SvgjsTspan1732" x="50 " dy="16.25 "><tspan id="SvgjsTspan1733">文本输入</tspan></tspan></text></g></g><g id="SvgjsG1734"><path id="SvgjsPath1735" fill="none" stroke="#323232" stroke-width="1.5" d="M 715.338 185.652 L 715.338 257.652 L 870.638 257.652" marker-end="url(#SvgjsMarker1736)"/></g><g id="SvgjsG1738"/><rect id="SvgjsRect1739" fill="url(#wpspattern_mark_0)" x="0" y="0" width="1275.65" height="325.652"/></svg>
